<?xml version="1.0" ?><!DOCTYPE svg  PUBLIC '-//W3C//DTD SVG 1.1//EN'  'http://www.w3.org/Graphics/SVG/1.1/DTD/svg11.dtd'><svg height="6.82666in" style="shape-rendering:geometricPrecision; text-rendering:geometricPrecision; image-rendering:optimizeQuality; fill-rule:evenodd; clip-rule:evenodd" viewBox="0 0 6.82666 6.82666" width="6.82666in" xml:space="preserve" xmlns="http://www.w3.org/2000/svg" xmlns:xlink="http://www.w3.org/1999/xlink"><defs><style type="text/css">
   <![CDATA[
    .fil1 {fill:none}
    .fil0 {fill:#212121;fill-rule:nonzero}
   ]]>
  </style></defs><g id="Layer_x0020_1"><path class="fil0" d="M2.61531 5.91976c-0.0191299,0 -0.0403661,-0.00199606 -0.0638504,-0.0062874l0.00958268 -0.105417 0.0946339 -1.9685e-005c0.0157126,-0.00438189 0.028189,-0.0113858 0.0378465,-0.0201024 0.0165394,-0.0149331 0.0260866,-0.0356457 0.0300039,-0.0570591 0.00131102,-0.00717323 0.00194094,-0.0150984 0.00194094,-0.0234528 0,-0.0572323 -0.000511811,-0.110685 -0.00118898,-0.182421 -0.00076378,-0.0805591 -0.00172047,-0.180654 -0.00251181,-0.295406 -0.862661,0.15661 -1.06406,-0.449248 -1.07232,-0.475315 -0.137268,-0.346969 -0.326039,-0.435425 -0.326587,-0.435689l-0.00708268 -0.00396063c-0.434795,-0.297142 0.0507598,-0.29098 0.0521378,-0.290976l0.00333465 0c0.340067,0.023937 0.521181,0.33748 0.531051,0.355l3.54331e-005 -1.9685e-005c0.10337,0.17711 0.230551,0.264445 0.356921,0.300524 0.183307,0.0523307 0.368157,-0.000606299 0.477346,-0.0457441 0.0151457,-0.0895276 0.0400945,-0.166937 0.0712323,-0.232512 0.0209803,-0.0441811 0.0448425,-0.0831417 0.0705039,-0.116969 -0.329429,-0.0467441 -0.659567,-0.142189 -0.917465,-0.359287 -0.28615,-0.240886 -0.480091,-0.627827 -0.480091,-1.25708l0.000208661 0c2.75591e-005,-0.175961 0.0304843,-0.33626 0.086063,-0.481102 0.0550866,-0.143563 0.134921,-0.272185 0.234335,-0.386055 -0.0190197,-0.0540472 -0.0454331,-0.14824 -0.0537717,-0.272937 -0.0101969,-0.152504 0.00644094,-0.351488 0.0966732,-0.579626l0.00208268 -0.00416535c5.51181e-005,-0.000110236 0.0392283,-0.0334724 0.0946024,-0.0362756 0.0365276,-0.00184646 0.0916575,7.08661e-005 0.166063,0.0151142 0.144906,0.0292992 0.366866,0.109654 0.673295,0.314228 0.121067,-0.0325472 0.24602,-0.0572795 0.372764,-0.0743268 0.137138,-0.0184409 0.276776,-0.0279016 0.416228,-0.0285236l0.000417323 0c0.139299,0.000622047 0.27878,0.0100866 0.415831,0.0285157 0.126803,0.0170551 0.251874,0.041811 0.373165,0.0743543 0.615976,-0.411346 0.899835,-0.320622 0.900673,-0.320378l0.024815 0.00735827 0.00955906 0.0240984c0.0905827,0.228437 0.107378,0.427232 0.0972717,0.579417 -0.00827953,0.124669 -0.0345906,0.218823 -0.0535315,0.272913 0.0993543,0.113587 0.178941,0.242047 0.233906,0.385555 0.0556969,0.145425 0.0860709,0.305996 0.0860709,0.481835 0,0.630996 -0.194228,1.01776 -0.480937,1.25778 -0.258087,0.216071 -0.588622,0.310268 -0.918752,0.356217 0.0386024,0.0504882 0.0733031,0.11261 0.100398,0.186575 0.0364685,0.0995709 0.0593268,0.220858 0.0593268,0.364232 0,0.255823 -0.00188976,0.521988 -0.0031378,0.698224 -0.000456693,0.0646693 -0.00080315,0.112976 -0.00080315,0.176823l-0.000208661 0c3.93701e-006,0.00797638 0.000822835,0.0165315 0.00253937,0.0254331 0.00411024,0.021315 0.0135472,0.0417008 0.0296693,0.0561535 0.00883465,0.00792126 0.0200472,0.0143819 0.0339606,0.0186811l0.10002 -1.9685e-005 0.01 0.105417c-0.0236969,0.00456693 -0.0461024,0.00668898 -0.0672087,0.00670079 -0.0204409,1.1811e-005 -0.0392677,-0.00203937 -0.0565591,-0.00584252l-1.79563 0.00034252c-0.0168504,0.00355118 -0.0351142,0.00547244 -0.0548701,0.00547244zm0.212799 -0.16972c-0.00361417,0.019752 -0.00983858,0.0393937 -0.0189764,0.0579685l1.52032 -0.000291339c-0.00856299,-0.017626 -0.0145039,-0.036185 -0.0181063,-0.0548622 -0.00284646,-0.0147441 -0.00420079,-0.0300748 -0.00420866,-0.0454331l-0.000208661 0c0,-0.00542913 0.000523622,-0.0789646 0.00122047,-0.17724 0.00107874,-0.152799 0.00272047,-0.38335 0.00272047,-0.697807 0,-0.130287 -0.0202874,-0.239185 -0.0526575,-0.327563 -0.0370315,-0.101102 -0.0896299,-0.174941 -0.145173,-0.222748l-0.0927205 -0.0798071 0.121677 -0.0135276c0.346512,-0.0385276 0.700937,-0.122933 0.96624,-0.345047 0.263854,-0.220894 0.442598,-0.581693 0.442598,-1.17611 0,-0.162567 -0.027874,-0.310472 -0.0789843,-0.443921 -0.0540276,-0.141055 -0.134087,-0.266327 -0.234685,-0.375992l-0.0228307 -0.0248858 0.012622 -0.0311535c0.0153307,-0.0378386 0.0486811,-0.132933 0.0578504,-0.27102 0.00888976,-0.133906 -0.00494488,-0.307217 -0.0793622,-0.506524 -0.074063,-0.00859843 -0.324173,-0.00333071 -0.807563,0.324319l-0.0204094 0.0138346 -0.0235472 -0.00654331c-0.123846,-0.0344055 -0.252154,-0.060315 -0.382516,-0.0778504 -0.133004,-0.0178898 -0.267795,-0.0270709 -0.401874,-0.0276811 -0.134232,0.000610236 -0.269181,0.0097874 -0.402272,0.027689 -0.130303,0.0175276 -0.258496,0.0434252 -0.382122,0.0778425l-0.0235236 0.00655118 -0.0204331 -0.0138425c-0.302815,-0.205118 -0.517299,-0.283862 -0.65498,-0.311705 -0.0636654,-0.012874 -0.109909,-0.014563 -0.140228,-0.0130276 -0.00876772,0.000440945 -0.00679528,-0.0129724 -0.00540157,-0.0192835 -0.0809173,0.207882 -0.0959291,0.388028 -0.0867047,0.526012 0.00924409,0.138276 0.0426378,0.23339 0.0580709,0.271228l0.0126063 0.0309055 -0.022815 0.0249291c-0.100461,0.10978 -0.180768,0.235343 -0.235094,0.376929 -0.0512717,0.133614 -0.0793701,0.281295 -0.0793937,0.443189l0.000208661 0c0,0.593118 0.178453,0.954177 0.441752,1.17583 0.26465,0.222783 0.618287,0.308516 0.963815,0.347831l0.119768 0.013626 -0.0906024 0.0792913c-0.0432559,0.0378543 -0.0846024,0.0916417 -0.118098,0.162177 -0.0302677,0.0637441 -0.0539291,0.140744 -0.066689,0.231535l-0.00409449 0.0291378 -0.0269488 0.0121102c-0.117323,0.0527126 -0.345264,0.1285 -0.576264,0.0625512 -0.150358,-0.0429252 -0.300441,-0.144709 -0.419835,-0.349272l-0.000417323 -0.000830709c-0.000448819,-0.00080315 -0.154571,-0.280949 -0.445354,-0.301618 -0.0191339,0.000417323 -0.119382,0.00673228 0.00942126,0.0954882 0.0347008,0.0185 0.23628,0.138354 0.375657,0.492492l0.00125197 0.00333071c0.000519685,0.0016378 0.17302,0.573929 1.01241,0.391547l0.0639803 -0.0139016 0.000393701 0.0657756c0.000850394,0.140807 0.00201969,0.263862 0.00292913,0.3595 0.000917323,0.0969134 0.0016063,0.169425 0.0016063,0.183256 0,0.0134016 -0.00130315,0.0277244 -0.00402756,0.0426181z"/></g><rect class="fil1" height="6.82666" width="6.82666"/></svg>