<?xml version="1.0" ?><!DOCTYPE svg  PUBLIC '-//W3C//DTD SVG 1.1//EN'  'http://www.w3.org/Graphics/SVG/1.1/DTD/svg11.dtd'><svg height="2048px" style="shape-rendering:geometricPrecision; text-rendering:geometricPrecision; image-rendering:optimizeQuality; fill-rule:evenodd; clip-rule:evenodd" viewBox="0 0 2048 2048" width="2048px" xml:space="preserve" xmlns="http://www.w3.org/2000/svg" xmlns:xlink="http://www.w3.org/1999/xlink"><defs><style type="text/css">
   <![CDATA[
    .fil2 {fill:none}
    .fil1 {fill:#9E9E9E}
    .fil0 {fill:#333333;fill-rule:nonzero}
   ]]>
  </style></defs><g id="Layer_x0020_1"><path class="fil0" d="M784.594 1775.93c-5.73898,0 -12.1099,-0.598819 -19.1551,-1.88622l2.87481 -31.6252 28.3902 -0.00590552c4.71378,-1.31457 8.4567,-3.41575 11.3539,-6.03071 4.96181,-4.47992 7.82599,-10.6937 9.00119,-17.1177 0.393307,-2.15197 0.582284,-4.52953 0.582284,-7.03583 0,-17.1697 -0.153543,-33.2055 -0.356693,-54.7264 -0.229134,-24.1677 -0.516142,-54.1961 -0.753544,-88.6217 -258.799,46.9831 -319.217,-134.775 -321.697,-142.595 -41.1803,-104.091 -97.8119,-130.628 -97.9761,-130.707l-2.1248 -1.18819c-130.439,-89.1426 15.228,-87.2942 15.6414,-87.293l1.00039 0c102.02,7.18111 156.354,101.244 159.315,106.5l0.0106299 -0.00590552c31.011,53.1331 69.1654,79.3335 107.076,90.1572 54.9922,15.6992 110.447,-0.18189 143.204,-13.7232 4.5437,-26.8583 12.0284,-50.0811 21.3697,-69.7536 6.2941,-13.2543 13.4528,-24.9425 21.1512,-35.0906 -98.8288,-14.0232 -197.87,-42.6567 -275.24,-107.786 -85.8449,-72.2658 -144.027,-188.348 -144.027,-377.124l0.0625985 0c0.00826772,-52.7882 9.14528,-100.878 25.8189,-144.331 16.526,-43.0689 40.4764,-81.6556 70.3004,-115.817 -5.70591,-16.2142 -13.6299,-44.4721 -16.1315,-81.8812 -3.05906,-45.7512 1.93228,-105.447 29.002,-173.888l0.624804 -1.24961c0.0165354,-0.0330709 11.7685,-10.0417 28.3807,-10.8827 10.9583,-0.553937 27.4973,0.0212599 49.8189,4.53426 43.4717,8.78977 110.06,32.8961 201.989,94.2686 36.3201,-9.76418 73.806,-17.1839 111.829,-22.298 41.1414,-5.53229 83.0327,-8.37048 124.869,-8.55709l0.125197 0c41.7898,0.186614 83.6339,3.02599 124.749,8.55473 38.041,5.11654 75.5623,12.5433 111.95,22.3063 184.793,-123.404 269.951,-96.1867 270.202,-96.1135l7.44449 2.20748 2.86772 7.22953c27.1748,68.5312 32.2134,128.17 29.1815,173.825 -2.48386,37.4008 -10.3772,65.6469 -16.0595,81.8741 29.8063,34.076 53.6823,72.6142 70.1717,115.667 16.7091,43.6276 25.8213,91.7989 25.8213,144.551 0,189.299 -58.2685,305.327 -144.281,377.335 -77.426,64.8213 -176.587,93.0804 -275.626,106.865 11.5807,15.1465 21.991,33.7831 30.1193,55.9725 10.9406,29.8713 17.798,66.2575 17.798,109.27 0,76.7469 -0.56693,156.597 -0.941339,209.467 -0.137008,19.4008 -0.240945,33.8929 -0.240945,53.0469l-0.0625985 0c0.0011811,2.39292 0.246851,4.95945 0.761812,7.62993 1.23307,6.39449 4.06418,12.5102 8.90079,16.8461 2.6504,2.37638 6.01418,4.31457 10.1882,5.60434l30.0059 -0.00590552 3 31.6252c-7.10906,1.37008 -13.8307,2.00669 -20.1626,2.01024 -6.13229,0.00354331 -11.7803,-0.611811 -16.9677,-1.75276l-538.689 0.102756c-5.05512,1.06536 -10.5343,1.64173 -16.461,1.64173zm63.8398 -50.9162c-1.08425,5.9256 -2.95158,11.8181 -5.69292,17.3906l456.096 -0.0874016c-2.5689,-5.2878 -4.35118,-10.8555 -5.43189,-16.4587 -0.853938,-4.42323 -1.26024,-9.02245 -1.2626,-13.6299l-0.0625985 0c0,-1.62874 0.157087,-23.6894 0.366142,-53.1721 0.323622,-45.8398 0.816142,-115.005 0.816142,-209.342 0,-39.0863 -6.08623,-71.7556 -15.7973,-98.269 -11.1095,-30.3307 -26.889,-52.4823 -43.552,-66.8245l-27.8162 -23.9421 36.5032 -4.05827c103.954,-11.5583 210.281,-36.8799 289.872,-103.514 79.1564,-66.2682 132.78,-174.508 132.78,-352.835 0,-48.7701 -8.36221,-93.1418 -23.6953,-133.176 -16.2083,-42.3166 -40.226,-79.8981 -70.4056,-112.798l-6.84922 -7.46575 3.78662 -9.34607c4.59922,-11.3516 14.6043,-39.88 17.3551,-81.306 2.66693,-40.1717 -1.48347,-92.165 -23.8087,-151.957 -22.2189,-2.57953 -97.252,-0.999213 -242.269,97.2957l-6.12284 4.1504 -7.06418 -1.96299c-37.154,-10.3217 -75.6461,-18.0945 -114.755,-23.3551 -39.9012,-5.36693 -80.3386,-8.12127 -120.562,-8.30434 -40.2697,0.183071 -80.7544,2.93622 -120.682,8.3067 -39.091,5.25827 -77.5489,13.0276 -114.637,23.3528l-7.05709 1.96536 -6.12993 -4.15276c-90.8446,-61.5355 -155.19,-85.1587 -196.494,-93.5115 -19.0996,-3.86221 -32.9729,-4.3689 -42.0685,-3.90827 -2.63032,0.132284 -2.03858,-3.89174 -1.62047,-5.78504 -24.2752,62.3646 -28.7788,116.408 -26.0114,157.804 2.77323,41.4827 12.7913,70.017 17.4213,81.3686l3.78189 9.27166 -6.84449 7.47875c-30.1382,32.9339 -54.2304,70.6028 -70.5284,113.079 -15.3815,40.0843 -23.811,84.3886 -23.8181,132.957l0.0625985 0c0,177.936 53.5359,286.253 132.526,352.748 79.3949,66.8351 185.486,92.5548 289.145,104.349l35.9303 4.0878 -27.1807 23.7874c-12.9768,11.3563 -25.3807,27.4925 -35.4296,48.6532 -9.08032,19.1232 -16.1788,42.2233 -20.0067,69.4607l-1.22835 8.74135 -8.08465 3.63307c-35.1969,15.8138 -103.579,38.55 -172.879,18.7654 -45.1075,-12.8776 -90.1324,-43.4126 -125.95,-104.782l-0.125197 -0.249213c-0.134646,-0.240945 -46.3713,-84.2847 -133.606,-90.4855 -5.74016,0.125197 -35.8146,2.01969 2.82638,28.6465 10.4102,5.55 70.8839,41.5063 112.697,147.748l0.375591 0.999213c0.155906,0.491339 51.9059,172.179 303.724,117.464l19.1941 -4.17048 0.11811 19.7327c0.255118,42.2422 0.605906,79.1587 0.878741,107.85 0.275197,29.074 0.48189,50.8276 0.48189,54.9768 0,4.02048 -0.390945,8.31733 -1.20827,12.7854z"/><path class="fil1" d="M608.762 1153.02c79.3949,66.8351 185.486,92.5548 289.145,104.349l35.9303 4.0878 -27.1807 23.7874c-12.9768,11.3563 -25.3807,27.4925 -35.4296,48.6532 -9.08032,19.1232 -16.1788,42.2233 -20.0067,69.4607l-1.22835 8.74135 -8.08465 3.63307c-35.1969,15.8138 -103.579,38.55 -172.879,18.7654 -45.1075,-12.8776 -90.1324,-43.4126 -125.95,-104.782l-0.125197 -0.249213c-0.134646,-0.240945 -46.3713,-84.2847 -133.606,-90.4855 -5.74016,0.125197 -35.8146,2.01969 2.82638,28.6465 10.4102,5.55 70.8839,41.5063 112.697,147.748l0.375591 0.999213c0.155906,0.491339 51.9059,172.179 303.724,117.464l19.1941 -4.17048 0.11811 19.7327c0.255118,42.2422 0.605906,79.1587 0.878741,107.85 0.275197,29.074 0.48189,50.8276 0.48189,54.9768 0,4.02048 -0.390945,8.31733 -1.20827,12.7854 -1.08425,5.9256 -2.95158,11.8181 -5.69292,17.3906l456.096 -0.0874016c-2.5689,-5.2878 -4.35118,-10.8555 -5.43189,-16.4587 -0.853938,-4.42323 -1.26024,-9.02245 -1.2626,-13.6299l-0.0625985 0 0.366142 -53.1721c0.323622,-45.8398 0.816142,-115.005 0.816142,-209.342 0,-39.0863 -6.08623,-71.7556 -15.7973,-98.269 -11.1095,-30.3307 -26.889,-52.4823 -43.552,-66.8245l-27.8162 -23.9421 36.5032 -4.05827c103.954,-11.5583 210.281,-36.8799 289.872,-103.514 79.1564,-66.2682 132.78,-174.508 132.78,-352.835 0,-48.7701 -8.36221,-93.1418 -23.6953,-133.176 -16.2083,-42.3166 -40.226,-79.8981 -70.4056,-112.798l-6.84922 -7.46575 3.78662 -9.34607c4.59922,-11.3516 14.6043,-39.88 17.3551,-81.306 2.66693,-40.1717 -1.48347,-92.165 -23.8087,-151.957 -22.2189,-2.57953 -97.252,-0.999213 -242.269,97.2957l-6.12284 4.1504 -7.06418 -1.96299c-37.154,-10.3217 -75.6461,-18.0945 -114.755,-23.3551 -39.9012,-5.36693 -80.3386,-8.12127 -120.562,-8.30434 -40.2697,0.183071 -80.7544,2.93622 -120.682,8.3067 -39.091,5.25827 -77.5489,13.0276 -114.637,23.3528l-7.05709 1.96536 -6.12993 -4.15276c-90.8446,-61.5355 -155.19,-85.1587 -196.494,-93.5115 -19.0996,-3.86221 -32.9729,-4.3689 -42.0685,-3.90827 -2.63032,0.132284 -2.03858,-3.89174 -1.62047,-5.78504 -24.2752,62.3646 -28.7788,116.408 -26.0114,157.804 2.77323,41.4827 12.7913,70.017 17.4213,81.3686l3.78189 9.27166 -6.84449 7.47875c-30.1382,32.9339 -54.2304,70.6028 -70.5284,113.079 -15.3815,40.0843 -23.811,84.3886 -23.8181,132.957l0.0625985 0c0,177.936 53.5359,286.253 132.526,352.748z"/></g><rect class="fil2" height="2048" width="2048"/></svg>