<?xml version="1.0" ?><svg height="60px" version="1.1" viewBox="0 0 60 60" width="60px" xmlns="http://www.w3.org/2000/svg" xmlns:sketch="http://www.bohemiancoding.com/sketch/ns" xmlns:xlink="http://www.w3.org/1999/xlink"><title/><defs/><g fill="none" fill-rule="evenodd" id="gloss" stroke="none" stroke-width="1"><g id="podcast"><path d="M30,60 C46.5685433,60 60,46.5685433 60,30 C60,13.4314567 46.5685433,0 30,0 C13.4314567,0 0,13.4314567 0,30 C0,46.5685433 13.4314567,60 30,60 Z" fill="#7E4EA3" id="Podcast"/><path d="M51.2132037,8.78679626 C56.6421358,14.2157283 60,21.7157283 60,30 C60,46.5685433 46.5685433,60 30,60 C21.7157283,60 14.2157283,56.6421358 8.78679626,51.2132037 L51.2132037,8.78679626 Z" fill="#000000" fill-opacity="0.400000006"/><path d="M29.999902,29.2096844 C32.073641,29.2096844 33.7549265,27.6262526 33.7549265,25.672887 C33.7549265,23.7196139 32.073739,22.1360895 29.999902,22.1360895 C27.9260649,22.1360895 26.2449755,23.7196139 26.2449755,25.672887 C26.2449755,27.6262526 27.9261629,29.2096844 29.999902,29.2096844 L29.999902,29.2096844 Z M29.999902,16.8353413 C24.8181034,16.8353413 20.6174877,20.7920212 20.6174877,25.6727943 C20.6174877,28.046413 21.6112197,30.2012406 23.2277989,31.7889352 C23.6903509,31.0877104 24.3290806,30.419661 25.2097726,29.9073878 C24.1060399,28.800181 23.4287806,27.311364 23.4287806,25.6727943 C23.4287806,22.2544275 26.3707606,19.4833523 29.999902,19.4833523 C33.6291414,19.4833523 36.5710233,22.2544275 36.5710233,25.6727943 C36.5710233,27.3149781 35.8908228,28.8065752 34.7828744,29.9145233 C35.6620958,30.4285572 36.2990608,31.0981819 36.7600442,31.8005188 C38.3837803,30.2116195 39.3824143,28.0522511 39.3824143,25.6727943 C39.3824143,20.7921138 35.1817986,16.8353413 29.999902,16.8353413 L29.999902,16.8353413 Z M29.999902,11.5442308 C21.7156321,11.5442308 15,17.8698958 15,25.672887 C15,30.7651303 17.8606069,35.2275038 22.1503409,37.713993 C22.0649481,37.1018229 22.0102419,36.4448011 22.0102419,35.7641488 C22.0102419,35.7641488 22.0061242,35.238068 22.1563213,34.4782765 C19.4910097,32.3696906 17.7963908,29.2079237 17.7963908,25.672887 C17.7963908,19.324518 23.260054,14.1782488 30,14.1782488 C36.739946,14.1782488 42.2037072,19.324518 42.2037072,25.672887 C42.2037072,29.2154299 40.5018333,32.3831276 37.8267178,34.4917135 C37.9740717,35.2441841 37.9701501,35.7640561 37.9701501,35.7640561 C37.9701501,36.4493419 37.9148557,37.1107191 37.8284825,37.726318 C42.1300793,35.2424234 45,30.7735631 45,25.672887 C44.999902,17.8698032 38.2841718,11.5442308 29.999902,11.5442308 L29.999902,11.5442308 Z M29.999902,30.9780832 C27.1485108,30.9780832 24.836829,33.1554293 24.836829,35.8412492 C24.836829,38.5269764 27.1484127,47.3134615 29.999902,47.3134615 C32.8513912,47.3134615 35.1629749,38.5270691 35.1629749,35.8412492 C35.1629749,33.1554293 32.8513912,30.9780832 29.999902,30.9780832 L29.999902,30.9780832 Z" fill="#FFFFFF" id="Podcast"/></g></g></svg>